<mxfile host="app.diagrams.net" agent="Mozilla/5.0 (Windows NT 10.0; Win64; x64) AppleWebKit/537.36 (KHTML, like Gecko) Chrome/131.0.0.0 Safari/537.36" version="24.9.2">
  <diagram name="第 1 页" id="6gBSKGB6EFL2GZYyczBQ">
    <mxGraphModel dx="1434" dy="746" grid="1" gridSize="10" guides="1" tooltips="1" connect="1" arrows="1" fold="1" page="1" pageScale="1" pageWidth="827" pageHeight="1169" math="0" shadow="0">
      <root>
        <mxCell id="0" />
        <mxCell id="1" parent="0" />
        <mxCell id="tQb7sZLLkdCvrPH1cJHh-1" value="" style="rounded=0;whiteSpace=wrap;html=1;" vertex="1" parent="1">
          <mxGeometry x="59" y="589" width="890" height="100" as="geometry" />
        </mxCell>
        <mxCell id="tQb7sZLLkdCvrPH1cJHh-2" value="" style="rounded=0;whiteSpace=wrap;html=1;" vertex="1" parent="1">
          <mxGeometry x="60" y="40" width="730" height="80" as="geometry" />
        </mxCell>
        <mxCell id="tQb7sZLLkdCvrPH1cJHh-3" value="" style="rounded=0;whiteSpace=wrap;html=1;" vertex="1" parent="1">
          <mxGeometry x="60" y="702" width="890" height="100" as="geometry" />
        </mxCell>
        <mxCell id="tQb7sZLLkdCvrPH1cJHh-4" value="" style="rounded=0;whiteSpace=wrap;html=1;" vertex="1" parent="1">
          <mxGeometry x="59" y="134" width="730" height="80" as="geometry" />
        </mxCell>
        <mxCell id="tQb7sZLLkdCvrPH1cJHh-5" value="" style="rounded=0;whiteSpace=wrap;html=1;" vertex="1" parent="1">
          <mxGeometry x="60" y="230" width="730" height="350" as="geometry" />
        </mxCell>
        <mxCell id="tQb7sZLLkdCvrPH1cJHh-6" value="" style="whiteSpace=wrap;html=1;" vertex="1" parent="1">
          <mxGeometry x="810" y="40" width="130" height="540" as="geometry" />
        </mxCell>
        <mxCell id="tQb7sZLLkdCvrPH1cJHh-7" value="访问层" style="rounded=0;whiteSpace=wrap;html=1;fontSize=17;fillColor=#f0a30a;strokeColor=#BD7000;fontColor=#000000;" vertex="1" parent="1">
          <mxGeometry x="60" y="40" width="100" height="80" as="geometry" />
        </mxCell>
        <mxCell id="tQb7sZLLkdCvrPH1cJHh-8" value="网关" style="rounded=0;whiteSpace=wrap;html=1;fontSize=17;fillColor=#f0a30a;strokeColor=#BD7000;fontColor=#000000;" vertex="1" parent="1">
          <mxGeometry x="59" y="134" width="100" height="80" as="geometry" />
        </mxCell>
        <mxCell id="tQb7sZLLkdCvrPH1cJHh-9" value="网关" style="rounded=0;whiteSpace=wrap;html=1;fontSize=17;fillColor=#f0a30a;strokeColor=#BD7000;fontColor=#000000;" vertex="1" parent="1">
          <mxGeometry x="60" y="230" width="100" height="350" as="geometry" />
        </mxCell>
        <mxCell id="tQb7sZLLkdCvrPH1cJHh-10" value="" style="whiteSpace=wrap;html=1;" vertex="1" parent="1">
          <mxGeometry x="220" y="240" width="370" height="330" as="geometry" />
        </mxCell>
        <mxCell id="tQb7sZLLkdCvrPH1cJHh-11" value="" style="whiteSpace=wrap;html=1;" vertex="1" parent="1">
          <mxGeometry x="640" y="240" width="140" height="330" as="geometry" />
        </mxCell>
        <mxCell id="tQb7sZLLkdCvrPH1cJHh-12" value="Web,Html.Js" style="rounded=0;whiteSpace=wrap;html=1;fillColor=#fad9d5;strokeColor=#ae4132;fontSize=18;" vertex="1" parent="1">
          <mxGeometry x="210" y="50" width="120" height="60" as="geometry" />
        </mxCell>
        <mxCell id="tQb7sZLLkdCvrPH1cJHh-13" value="App,&lt;div&gt;IOS,Android&lt;/div&gt;" style="rounded=0;html=1;fillColor=#fad9d5;strokeColor=#ae4132;fontSize=18;align=center;whiteSpace=wrap;labelBackgroundColor=none;verticalAlign=middle;labelPosition=center;verticalLabelPosition=middle;" vertex="1" parent="1">
          <mxGeometry x="400" y="50" width="120" height="60" as="geometry" />
        </mxCell>
        <mxCell id="tQb7sZLLkdCvrPH1cJHh-14" value="外部接口&lt;div&gt;Http&lt;/div&gt;" style="rounded=0;html=1;fillColor=#fad9d5;strokeColor=#ae4132;fontSize=18;align=center;whiteSpace=wrap;labelBackgroundColor=none;verticalAlign=middle;labelPosition=center;verticalLabelPosition=middle;" vertex="1" parent="1">
          <mxGeometry x="580" y="50" width="120" height="60" as="geometry" />
        </mxCell>
      </root>
    </mxGraphModel>
  </diagram>
</mxfile>
